<?xml version="1.0" standalone="no"?><!DOCTYPE svg PUBLIC "-//W3C//DTD SVG 1.1//EN" "http://www.w3.org/Graphics/SVG/1.1/DTD/svg11.dtd"><svg t="1776938246960" class="icon" viewBox="0 0 1024 1024" version="1.1" xmlns="http://www.w3.org/2000/svg" p-id="12403" xmlns:xlink="http://www.w3.org/1999/xlink" width="200" height="200"><path d="M296.96 64.853333h319.146667c17.066667 0 32.426667-13.653333 32.426666-32.426666 0-17.066667-13.653333-32.426667-32.426666-32.426667H296.96c-17.066667 0-32.426667 13.653333-32.426667 32.426667 1.706667 17.066667 15.36 32.426667 32.426667 32.426666zM708.266667 221.866667H191.146667c-17.066667 0-32.426667 13.653333-32.426667 32.426666 0 17.066667 13.653333 32.426667 32.426667 32.426667h517.12c17.066667 0 32.426667-13.653333 32.426666-32.426667 0-18.773333-15.36-32.426667-32.426666-32.426666z m32.426666 196.266666c0-17.066667-13.653333-32.426667-32.426666-32.426666H191.146667c-17.066667 0-32.426667 13.653333-32.426667 32.426666 0 17.066667 13.653333 32.426667 32.426667 32.426667h517.12c17.066667 0 32.426667-15.36 32.426666-32.426667z m-549.546666 131.413334c-17.066667 0-32.426667 13.653333-32.426667 32.426666 0 17.066667 13.653333 32.426667 32.426667 32.426667H460.8c17.066667 0 32.426667-13.653333 32.426667-32.426667 0-17.066667-13.653333-32.426667-32.426667-32.426666H191.146667z m0 0" p-id="12404" fill="#ffffff"></path><path d="M1012.053333 773.12c0-85.333333-42.666667-160.426667-107.52-204.8V128C904.533333 58.026667 848.213333 0 776.533333 0h-30.72c-17.066667 0-32.426667 13.653333-32.426666 32.426667 0 17.066667 13.653333 32.426667 32.426666 32.426666h30.72c35.84 0 63.146667 29.013333 63.146667 63.146667v407.893333c-23.893333-8.533333-51.2-11.946667-78.506667-11.946666-138.24 0-249.173333 110.933333-249.173333 249.173333 0 73.386667 32.426667 139.946667 81.92 186.026667H138.24c-35.84 0-63.146667-29.013333-63.146667-63.146667v-768c0-35.84 29.013333-63.146667 63.146667-63.146667h30.72c17.066667 0 32.426667-13.653333 32.426667-32.426666C201.386667 15.36 187.733333 0 168.96 0H138.24C68.266667 0 10.24 58.026667 10.24 128v766.293333c0 69.973333 58.026667 128 128 128h624.64-6.826667 13.653334-6.826667 13.653333c11.946667 0 23.893333-1.706667 34.133334-5.12 116.053333-22.186667 201.386667-122.88 201.386666-244.053333z m-122.88-215.04z m-15.36-8.533333zM750.933333 1022.293333h0z m-124.586666-39.253333s1.706667 0 0 0c1.706667 0 0 0 0 0z m5.12 1.706667z m5.12 3.413333z m5.12 3.413333z m5.12 1.706667s0 1.706667 0 0c0 1.706667 0 0 0 0z m3.413333 3.413333c1.706667 0 1.706667 0 0 0 1.706667 0 1.706667 0 0 0z m6.826667 1.706667s0 1.706667 0 0c0 1.706667 0 0 0 0z m5.12 3.413333z m5.12 1.706667z m5.12 1.706667z m13.653333 5.12c1.706667 0 1.706667 0 0 0 1.706667 1.706667 1.706667 0 0 0z m5.12 1.706666h1.706667c0 1.706667 0 0-1.706667 0z m6.826667 1.706667h3.413333-3.413333z m5.12 1.706667h3.413333-3.413333z m5.12 1.706666h3.413333-3.413333z m6.826666 1.706667h3.413334-3.413334z m5.12 0h3.413334-3.413334z m6.826667 1.706667h3.413333-3.413333z m5.12 0h3.413333-3.413333z m6.826667 1.706666h3.413333-3.413333z m5.12 0h0z m29.013333 0h3.413333-3.413333zM779.946667 1022.293333h0z m6.826666 0z m6.826667-1.706666z m-30.72-52.906667c-51.2 0-100.693333-20.48-136.533333-56.32-35.84-35.84-56.32-85.333333-56.32-136.533333s20.48-100.693333 56.32-136.533334c35.84-35.84 85.333333-56.32 136.533333-56.32s100.693333 20.48 136.533333 56.32c35.84 35.84 56.32 85.333333 56.32 136.533334s-20.48 100.693333-56.32 136.533333c-35.84 35.84-83.626667 56.32-136.533333 56.32z m0 0" p-id="12405" fill="#ffffff"></path><path d="M662.186667 754.346667h201.386666c11.946667 0 20.48-6.826667 25.6-17.066667 5.12-10.24 1.706667-22.186667-5.12-30.72L824.32 648.533333c-10.24-10.24-29.013333-10.24-39.253333 0-10.24 10.24-10.24 29.013333 0 39.253334l11.946666 11.946666h-134.826666c-15.36 0-27.306667 11.946667-27.306667 27.306667 0 13.653333 11.946667 27.306667 27.306667 27.306667z m201.386666 39.253333H662.186667c-11.946667 0-20.48 6.826667-25.6 17.066667-5.12 10.24-1.706667 22.186667 5.12 30.72l58.026666 58.026666c5.12 5.12 11.946667 8.533333 18.773334 8.533334 6.826667 0 13.653333-3.413333 18.773333-8.533334 10.24-10.24 10.24-29.013333 0-39.253333l-11.946667-11.946667h134.826667c15.36 0 27.306667-11.946667 27.306667-27.306666 5.12-15.36-8.533333-27.306667-23.893334-27.306667z m0 0" p-id="12406" fill="#ffffff"></path></svg>