<?xml version="1.0" standalone="no"?><!DOCTYPE svg PUBLIC "-//W3C//DTD SVG 1.1//EN" "http://www.w3.org/Graphics/SVG/1.1/DTD/svg11.dtd"><svg t="1776918908712" class="icon" viewBox="0 0 1024 1024" version="1.1" xmlns="http://www.w3.org/2000/svg" p-id="1877" xmlns:xlink="http://www.w3.org/1999/xlink" width="200" height="200"><path d="M205.04323 720.326841c-17.026128 0-30.768646-33.809026-30.768646-75.401425 0-41.714014 13.742518-75.401425 30.768646-75.401426h286.525416l-27.36342 50.105464H202.489311c-3.648456 0-6.567221 3.770071-6.567221 8.391449v33.930641c0 4.621378 2.918765 8.391449 6.567221 8.391449h605.27886c3.648456 0 6.567221-3.770071 6.567221-8.391449v-33.930641c0-4.621378-3.04038-8.391449-6.567221-8.391449H500.811401l46.821853-50.105464h261.83753c17.026128 0 30.768646 33.809026 30.768646 75.401426 0 41.714014-13.742518 75.401425-30.768646 75.401425h-604.427554z" p-id="1878" fill="#ffffff"></path><path d="M674.234679 206.259382L395.127791 429.301663h183.030879l-96.31924 192.273634 208.08361-238.244181H544.714489z" p-id="1879" fill="#ffffff"></path></svg>